<?xml version="1.0" encoding="UTF-8"?>
<svg id="Layer_1" data-name="Layer 1" xmlns="http://www.w3.org/2000/svg" viewBox="0 0 3508.33 1321.73">
  <defs>
    <style>
      .cls-1 {
        fill: red;
        fill-rule: evenodd;
      }

      .cls-2 {
        fill: #00348d;
      }
    </style>
  </defs>
  <g>
    <path class="cls-1" d="M2405.02,730.53c-16.19,17.8-32.94,35.1-50.32,51.05-45.92,42.15-97.21,84.34-164.81,106.47-47.29,15.49-139.96,24.91-145.85-32.09-3.65-35.26,12.71-55.23,22.61-78.76,36.26,32.38,100.23,41.54,153.15,18.96,47.64-20.34,80.71-51.29,109.39-89.69,13.64-18.26,25.79-36.91,37.19-61.99,10.88-23.93,19.99-52.18,16.77-80.95-3.09-27.63-21.79-46.01-42.29-56.88-22.67-12.03-51.29-15.73-85.32-13.13-61.03,4.65-104.63,27.21-142.93,55.43-96.52,71.09-161.59,168.24-237.73,259.61-11.59,13.91-33.63,43.39-53.24,46.67-10.69,1.79-23.23-2.2-26.25-11.67-5.66-17.74,10.95-42.08,18.23-54.69,9.95-17.23,19.93-31.47,29.9-45.21,61.52-84.8,126.87-160.69,188.88-242.84,2.18-2.89,6.56-5.94,5.84-10.21-44.72-.26-89.62-.32-133.45-1.45-54.69,69.57-113.05,143.68-177.21,207.84-55.42,55.42-116.78,107.15-181.58,155.33-7.5,5.57-23.32,19.11-32.09,15.32-10.74-4.65-1.93-33.12.73-40.84,13.61-39.48,31.68-74.09,48.86-106.47,24.59-46.35,48.7-89.59,83.87-123.24,26.29,7.28,52.7-4.09,73.65-13.85,17.82-8.3,33.2-17.71,46.67-27.71,57.12-42.42,101.76-95.91,135.64-161.89,13.78-26.83,39.1-79.58,20.42-116.68-4.39-8.71-12.97-16.34-22.61-21.15-40.94-20.45-90.71,3.82-118.13,20.42-64.48,39.02-114.61,93.73-161.16,148.77-70.7,83.6-132.32,180.19-181.59,283.68-15.51,32.58-38.97,64.17-65.63,88.97-18.05,16.79-42.15,38.62-70.01,45.95-9.38,2.47-22.11,5.5-30.63-4.38.23-20,11.41-36.08,20.42-51.05,9.05-15.05,19.08-29.51,28.44-43.76,54.35-82.64,111.43-165.05,162.62-250.13,1.87-3.1,5.02-6.96,4.37-10.94-44.82,1.84-90.21,3.13-134.91,5.1-44.68,64.71-85.48,132.68-131.27,202-32.77,49.62-65.3,98.97-110.12,139.29-10.11,9.1-34.45,33.22-53.96,29.9-27.9-4.74-15.42-57.67-8.75-75.84,19.06-51.97,52.59-93.49,80.95-133.45,37.5-52.85,75.11-103.32,112.31-154.6,2.48-3.41,7.04-6.66,5.84-9.48-35.76-.43-70.5.73-106.47.73-10.82,0-26.76-2.76-35.73,0-2.82.87-10.12,10.43-13.85,15.32-22.62,29.6-40.07,58.89-60.53,87.51-24.64,34.48-56.25,65.2-83.13,94.8-18.68,20.57-37.84,41.02-62.72,54.69,8.09-54.99,29.03-102.76,49.59-148.77,20.42-45.71,41.9-90.08,64.91-133.45,34.07-64.23,70.84-128.46,113.03-184.5,14-18.59,28.33-38.69,50.32-48.86-46.42-21.07-109.2-19.86-166.27-12.4-53.93,7.05-108.5,20.08-152.41,36.47-140.09,52.27-227.61,149.32-299.72,267.64-24.08,39.5-42.63,88.11-43.76,145.12-1.27,64.12,17.4,107.51,52.51,136.37,33.56,27.59,95.42,32.98,156.06,26.25-93.7,27.41-181.43,60.98-247.21,118.14-29.41,25.55-66.42,61.46-69.28,113.04-3.35,60.57,29.47,93.49,85.32,97.72,53.67,4.07,105.61-17.5,142.93-37.92,79.91-43.73,138.53-106.07,185.23-180.12,23.43-37.16,45.22-78.02,57.61-125.43,19.89-21.77,43.38-41.71,64.91-61.25,7.24-6.57,13.43-14.59,21.88-18.96-19.81,25.07-38.79,55.46-47.4,92.61-10.05,43.33-.55,83.31,27.71,105.74,29.27,23.23,74.6,20.86,108.65,4.37,27.58-13.35,50.18-32.67,69.28-53.24,2.72-2.93,5.02-6.55,8.75-8.03,8.37,30.64,25.69,51.53,53.96,61.25,30.36,10.45,69.7,3.74,97.72-7.29,54.47-21.44,96.61-60.17,126.16-104.28,1.78,57.1,9.24,119.6,63.44,119.6,23.05,0,43.89-11.08,60.53-21.15,51.16-30.96,92.97-75.66,129.08-115.95,0,.74-.59.87-.73,1.46-24.25,32.66-17.1,86.3,4.37,113.03,24.15,30.05,71.04,27.81,113.76,16.04,76.04-20.94,115.27-86.4,154.6-137.82-19.39,75.08,16.03,119.47,68.55,137.1,54.41,18.26,135.99,12.43,188.88-5.84,79.55-27.47,140.72-77.14,195.44-129.08,18.7-17.75,37.95-35.05,54.69-53.96-3.88-8.76-6.3-18.98-9.48-28.44-6.17,3.59-10.67,10.15-16.04,16.04h-.03ZM2164.37,635c21.58-21.89,49.44-46.19,83.13-50.32,27.66-3.39,13.67,32.71,6.56,49.59-16,38.03-46.85,81.39-91.88,85.32-22.99,2-36.59-6.03-51.78-12.4,12.4-24.39,31.76-49.66,53.96-72.2h0ZM1710.78,513.21c25.65-29.08,51.94-58.5,80.21-86.78,12.48-12.47,27.32-30.14,44.48-38.65,11.24-5.57,7.82,20.37,6.56,26.99-6.98,36.78-39.04,65.84-67.09,89.69-31.11,26.45-58.35,49.04-101.36,55.43,10.24-16.84,23.95-31.65,37.19-46.67h0ZM650.45,956.6c-32.02,44.14-63.03,80.75-111.57,109.39-8.96,5.29-23.29,13.35-39.38,16.04-18.39,3.08-37.41,1.15-41.57-11.67-3.03-9.33,1.68-22.16,5.11-29.17,9.5-19.43,26.77-36.67,43.76-51.77,49.7-44.17,115.95-77.94,180.85-105.01,1.25.15,1.89-1.25,2.19,0-4.95,26.57-25.8,53.48-39.38,72.2h-.02ZM760.57,742.2c-28.41,18.82-81.25,32.6-102.09.73-14.26-21.8-13.56-57.45-10.21-85.32,3.45-28.71,14.21-54.16,24.07-75.84,21.02-46.24,47.36-87.84,75.11-124.7,28.05-37.26,60.77-74.48,95.53-104.28,36.43-31.23,81.26-57.96,134.19-68.55.71.02.56.89.73,1.45-98.68,125.93-181.72,267.51-217.32,456.51h0Z"/>
    <path class="cls-1" d="M2059.36,427.16c32.64-7.95,59.5-37.16,73.65-64.91,5.77-11.31,14.27-30.68,12.4-48.86-2.82-27.33-26.2-37.8-54.69-35-28.6,2.8-49.75,14.74-66.36,31.36-14.96,14.96-30.13,39.1-32.09,64.91-2.96,39.06,26.82,62.31,67.09,52.51h0Z"/>
    <path class="cls-1" d="M2585.15,448.31c14.12-15.06,25.04-27.93,35.73-45.21,10.22-16.51,21.03-36.31,22.61-58.34,2.83-39.58-26.56-65.45-62.72-63.44-38.15,2.11-71.21,34.21-85.32,64.17-5.94,12.62-11.95,31.2-10.21,47.4,2.96,27.56,35.92,33.57,65.63,36.46-16.11,19.86-31.23,42.4-53.96,55.43-6.11,3.5-13.59,4.78-17.51,11.67,3.12,5.15,3.98,12.55,8.75,16.04,40.29-9.39,69.96-35.35,96.99-64.17h0Z"/>
    <path class="cls-1" d="M3053.32,510.29c-5.49-50.6-83.94-45.54-134.18-37.92-.7,4.64,4.72,6.67,7.29,9.48,13.9,15.18,25.52,39.99,11.67,62.72-21.27,34.9-82.14,53.21-132,61.99-18.33,3.23-40.17,7.03-60.53,4.37-9.66-1.26-21.15-8.87-21.15-14.59,0-3.69,6.83-8.95,10.94-13.13,12.53-12.75,25.17-28.44,32.81-40.84,10.96-17.78,24.75-45.19,22.61-75.11-2.23-31.15-22.88-50.97-50.32-59.07-9.66-2.86-17.15-4.12-29.9-2.92-41.45,3.89-67.36,46.19-82.4,83.13-17.18,42.18-26.49,87.33-26.25,140.01-18.95,12.36-44.79,25.91-66.36,37.92-15.56,8.66-32.63,16.19-26.25,40.11,15.23-5.79,29.35-13.73,47.4-23.33,6.67-3.55,14.42-7.19,23.33-11.67,7.56-3.8,18.47-11,26.25-9.48,10.15,1.97,11.62,17.47,16.77,26.25-50.84,45.98-126.45,74.32-130.53,167-1.34,30.45,5.73,58.64,23.33,76.57,30.24,30.81,84.73,35.07,139.29,33.55,53.83-1.5,95.34-23.6,121.79-51.05,28.73-29.83,49.23-72.16,45.21-126.16-3.83-51.51-22.75-90.16-45.21-126.16,94.8,11.44,183.08-24.76,233.36-71.47,17.6-16.34,35.61-36.71,41.57-61.99,1.42-6.04,2.03-13.02,1.45-18.23v.02ZM2679.95,892.42c-11.74,18.54-32.31,28.91-51.77,30.63-34.66,3.05-57.41-9.89-72.2-28.44-21-26.34-22.4-68.58.73-100.64,10.71-14.84,28.38-28.51,40.84-38.65,14.53-11.83,27.6-23.57,46.67-32.81.36-.17,1.06.05,1.46,0,11.24-1.59,23.91,22.13,28.44,30.62,18.64,34.97,30.55,100.24,5.84,139.29h0ZM2720.79,459.25c14.68-2.06,26,12.35,24.07,30.63-3.09,29.2-28.12,55.82-43.03,72.2-20.22-32.32-26.98-96.37,18.96-102.83h0Z"/>
  </g>
  <g>
    <path class="cls-2" d="M3134.31,476.13c-21.41-50.63-52.06-96.09-91.1-135.13s-84.5-69.68-135.13-91.1c-52.43-22.18-108.11-33.42-165.49-33.42h-812.63c-6.21,0-8.35,8.4-2.83,11.25.05.03.11.04.16.08,12.42,11.4,12.19,14.25,18.78,27.33,2.78,5.51,4.85,11.21,6.32,17h64.64c20.39-16.74,44.3-26.54,71.26-29.18,3.76-.37,7.51-.56,11.13-.56,17.82,0,33.64,4.56,45.73,13.18,6.4,4.57,11.67,10.14,15.73,16.56h353.55c20.05-15.98,42.48-25.09,64.96-26.34,1.76-.1,3.54-.15,5.29-.15,24.46,0,46.59,9.29,62.3,26.17.09.1.18.21.28.31h95.34c49.89,0,98.28,9.77,143.81,29.02,43.99,18.61,83.51,45.25,117.45,79.2,33.94,33.94,60.59,73.46,79.2,117.45,19.26,45.53,29.02,93.92,29.02,143.81s-9.76,98.28-29.02,143.81c-18.61,43.99-45.25,83.51-79.2,117.45-33.94,33.94-73.46,60.59-117.45,79.19-45.53,19.26-93.92,29.02-143.81,29.02H775.37c-17.44,20.35-35.83,38.87-55.26,55.66h2022.49c57.38,0,113.06-11.24,165.49-33.42,50.63-21.41,96.09-52.06,135.13-91.1,39.03-39.03,69.68-84.5,91.1-135.13,22.18-52.43,33.42-108.11,33.42-165.49s-11.24-113.06-33.42-165.49Z"/>
    <path class="cls-2" d="M1217.7,216.48l-41.88,19.35c-14.51,6.71-25.61,20.95-37.15,36.3h590.58c12.95-9.86,26.52-19.22,40.82-27.87,6.76-4.09,12.16-7.79,16.96-11.09,7.4-5.1,3.78-16.69-5.2-16.69h-564.12Z"/>
    <path class="cls-2" d="M411.28,948.06c12.02-14.03,25.09-25.98,36.84-36.2,1.02-.88,2.06-1.73,3.08-2.61-2.2-2.09-4.37-4.22-6.53-6.37-33.94-33.94-60.59-73.46-79.19-117.45-19.26-45.53-29.02-93.92-29.02-143.81s9.77-98.28,29.02-143.81c18.61-43.99,45.25-83.51,79.19-117.45,33.94-33.94,73.46-60.59,117.45-79.19,45.53-19.26,93.92-29.02,143.81-29.02h17.96c33.15-22.36,68.6-40.79,106.93-55.65h-124.9c-57.38,0-113.06,11.24-165.49,33.42-50.63,21.41-96.09,52.06-135.13,91.1-39.03,39.03-69.69,84.5-91.1,135.13-22.18,52.43-33.42,108.11-33.42,165.49s11.24,113.06,33.42,165.49c21.41,50.63,52.06,96.09,91.1,135.13,1.97,1.97,3.96,3.9,5.96,5.82Z"/>
  </g>
</svg>